<svg width="1024" height="1024" viewBox="0 0 1024 1024" xmlns="http://www.w3.org/2000/svg">
  <circle cx="512" cy="512" r="512" fill="white"/>

  <circle cx="512" cy="512" r="420" fill="none" stroke="#007BFF" stroke-width="50"/>
  <circle cx="512" cy="512" r="300" fill="none" stroke="#007BFF" stroke-width="50"/>
  <circle cx="512" cy="512" r="180" fill="none" stroke="#007BFF" stroke-width="50"/>

  <g transform="translate(0, 50)"> <path d="M 512 750 
             L 512 300 
             C 512 300, 300 250, 200 300 
             L 200 750 
             C 300 700, 512 750, 512 750 
             Z" 
          fill="#007BFF" stroke="white" stroke-width="30" stroke-linejoin="round"/>
          
    <path d="M 512 750 
             L 512 300 
             C 512 300, 724 250, 824 300 
             L 824 750 
             C 724 700, 512 750, 512 750 
             Z" 
          fill="#007BFF" stroke="white" stroke-width="30" stroke-linejoin="round"/>
          
    <line x1="512" y1="300" x2="512" y2="750" stroke="white" stroke-width="20"/>
  </g>

  <g transform="translate(620, 450) rotate(-15)">
    <rect x="70" y="70" width="100" height="30" fill="#333" rx="15" transform="rotate(45)"/>
    <circle cx="60" cy="60" r="50" fill="white" stroke="#333" stroke-width="15"/>
  </g>
</svg>
